PathFileType	4	(X/Y/Z)	C:\Users\italobelli\Desktop\GitHub\PTbot_officialCBL\Personal_Results\FLX23_noisy2.trc
DataRate	CameraRate	NumFrames	NumMarkers	Units	OrigDataRate	OrigDataStartFrame	OrigNumFrames
106.533333	106.533333	25	9	m	106.533333	701	800
Frame#	Time		gu		centelbow		EpL		centpxt8		centijc7		ij		ts		aa		ai
			X1	Y1	Z1	X2	Y2	Z2	X3	Y3	Z3	X4	Y4	Z4	X5	Y5	Z5	X6	Y6	Z6	X7	Y7	Z7	X8	Y8	Z8	X9	Y9	Z9

701	6.5707	-0.068997	-0.011014	0.17237	-0.14234	-0.23942	0.18727	-0.1226	-0.23935	0.2128	-0.046816	-0.15316	-0.008669	-0.046816	0.031938	-0.008669	0	0	0	-0.13068	0.029684	0.055382	-0.10089	0.025557	0.1708	-0.14844	-0.082297	0.061451
702	6.5801	-0.069086	-0.011078	0.17232	-0.14217	-0.2397	0.1873	-0.12246	-0.23963	0.21286	-0.046816	-0.15316	-0.008669	-0.046816	0.031938	-0.008669	0	0	0	-0.13071	0.029692	0.055354	-0.10095	0.025516	0.17077	-0.14849	-0.082291	0.061384
703	6.5895	-0.069185	-0.011144	0.17227	-0.142	-0.24	0.18734	-0.12231	-0.23991	0.21292	-0.046816	-0.15316	-0.008669	-0.046816	0.031938	-0.008669	0	0	0	-0.13075	0.0297	0.055326	-0.101	0.025474	0.17074	-0.14855	-0.082284	0.061314
704	6.5989	-0.069293	-0.011209	0.17221	-0.14183	-0.2403	0.18738	-0.12217	-0.24021	0.21298	-0.046816	-0.15316	-0.008669	-0.046816	0.031938	-0.008669	0	0	0	-0.13079	0.029707	0.055297	-0.10106	0.025432	0.17072	-0.14862	-0.082278	0.061243
705	6.6083	-0.06941	-0.011276	0.17214	-0.14165	-0.24062	0.18743	-0.12202	-0.24051	0.21304	-0.046816	-0.15316	-0.008669	-0.046816	0.031938	-0.008669	0	0	0	-0.13084	0.029714	0.055268	-0.10113	0.025389	0.17069	-0.14868	-0.082273	0.061171
706	6.6176	-0.069536	-0.011343	0.17207	-0.14148	-0.24095	0.18747	-0.12186	-0.24082	0.21311	-0.046816	-0.15316	-0.008669	-0.046816	0.031938	-0.008669	0	0	0	-0.13089	0.02972	0.055238	-0.10119	0.025346	0.17066	-0.14875	-0.082267	0.061096
707	6.627	-0.06967	-0.011411	0.172	-0.14129	-0.24129	0.18752	-0.12171	-0.24113	0.21318	-0.046816	-0.15316	-0.008669	-0.046816	0.031938	-0.008669	0	0	0	-0.13094	0.029726	0.055208	-0.10127	0.025302	0.17063	-0.14882	-0.082262	0.06102
708	6.6364	-0.069811	-0.011479	0.17192	-0.14111	-0.24164	0.18757	-0.12155	-0.24146	0.21324	-0.046816	-0.15316	-0.008669	-0.046816	0.031938	-0.008669	0	0	0	-0.131	0.029732	0.055178	-0.10134	0.025258	0.1706	-0.1489	-0.082257	0.060943
709	6.6458	-0.06996	-0.011548	0.17184	-0.14092	-0.242	0.18762	-0.12139	-0.24178	0.21331	-0.046816	-0.15316	-0.008669	-0.046816	0.031938	-0.008669	0	0	0	-0.13106	0.029737	0.055148	-0.10142	0.025214	0.17057	-0.14897	-0.082253	0.060865
710	6.6552	-0.070115	-0.011617	0.17175	-0.14073	-0.24236	0.18767	-0.12123	-0.24212	0.21339	-0.046816	-0.15316	-0.008669	-0.046816	0.031938	-0.008669	0	0	0	-0.13112	0.029742	0.055117	-0.1015	0.025169	0.17054	-0.14906	-0.082249	0.060785
711	6.6646	-0.070276	-0.011686	0.17166	-0.14054	-0.24274	0.18773	-0.12107	-0.24245	0.21346	-0.046816	-0.15316	-0.008669	-0.046816	0.031938	-0.008669	0	0	0	-0.13119	0.029747	0.055087	-0.10158	0.025124	0.17051	-0.14914	-0.082245	0.060704
712	6.674	-0.070443	-0.011756	0.17157	-0.14035	-0.24312	0.18778	-0.1209	-0.24279	0.21353	-0.046816	-0.15316	-0.008669	-0.046816	0.031938	-0.008669	0	0	0	-0.13126	0.029751	0.055056	-0.10166	0.025078	0.17048	-0.14922	-0.082241	0.060622
713	6.6834	-0.070615	-0.011827	0.17147	-0.14016	-0.24351	0.18784	-0.12074	-0.24314	0.21361	-0.046816	-0.15316	-0.008669	-0.046816	0.031938	-0.008669	0	0	0	-0.13133	0.029755	0.055025	-0.10175	0.025033	0.17045	-0.14931	-0.082238	0.06054
714	6.6927	-0.070792	-0.011897	0.17137	-0.13996	-0.2439	0.1879	-0.12057	-0.24349	0.21369	-0.046816	-0.15316	-0.008669	-0.046816	0.031938	-0.008669	0	0	0	-0.1314	0.029758	0.054994	-0.10183	0.024987	0.17042	-0.1494	-0.082235	0.060457
715	6.7021	-0.070974	-0.011968	0.17127	-0.13977	-0.2443	0.18796	-0.1204	-0.24383	0.21377	-0.046816	-0.15316	-0.008669	-0.046816	0.031938	-0.008669	0	0	0	-0.13148	0.029761	0.054962	-0.10192	0.02494	0.17039	-0.14949	-0.082232	0.060373
716	6.7115	-0.071159	-0.012039	0.17117	-0.13957	-0.2447	0.18802	-0.12023	-0.24419	0.21385	-0.046816	-0.15316	-0.008669	-0.046816	0.031938	-0.008669	0	0	0	-0.13155	0.029763	0.054931	-0.10201	0.024894	0.17036	-0.14958	-0.08223	0.060289
717	6.7209	-0.071347	-0.01211	0.17106	-0.13937	-0.24511	0.18809	-0.12007	-0.24454	0.21393	-0.046816	-0.15316	-0.008669	-0.046816	0.031938	-0.008669	0	0	0	-0.13163	0.029766	0.0549	-0.10211	0.024847	0.17033	-0.14967	-0.082228	0.060205
718	6.7303	-0.071539	-0.012181	0.17095	-0.13918	-0.24552	0.18816	-0.1199	-0.24489	0.21401	-0.046816	-0.15316	-0.008669	-0.046816	0.031938	-0.008669	0	0	0	-0.13171	0.029767	0.054869	-0.1022	0.0248	0.1703	-0.14977	-0.082226	0.06012
719	6.7397	-0.071732	-0.012252	0.17084	-0.13898	-0.24593	0.18822	-0.11973	-0.24525	0.21409	-0.046816	-0.15316	-0.008669	-0.046816	0.031938	-0.008669	0	0	0	-0.13179	0.029769	0.054838	-0.10229	0.024753	0.17027	-0.14986	-0.082225	0.060036
720	6.7491	-0.071928	-0.012324	0.17073	-0.13878	-0.24634	0.18829	-0.11956	-0.2456	0.21418	-0.046816	-0.15316	-0.008669	-0.046816	0.031938	-0.008669	0	0	0	-0.13187	0.02977	0.054808	-0.10239	0.024705	0.17023	-0.14996	-0.082223	0.059951
721	6.7584	-0.072125	-0.012395	0.17062	-0.13859	-0.24675	0.18836	-0.11939	-0.24595	0.21426	-0.046816	-0.15316	-0.008669	-0.046816	0.031938	-0.008669	0	0	0	-0.13196	0.029771	0.054777	-0.10248	0.024658	0.1702	-0.15006	-0.082222	0.059867
722	6.7678	-0.072324	-0.012466	0.17051	-0.13839	-0.24716	0.18843	-0.11922	-0.2463	0.21435	-0.046816	-0.15316	-0.008669	-0.046816	0.031938	-0.008669	0	0	0	-0.13204	0.029771	0.054746	-0.10258	0.02461	0.17017	-0.15015	-0.082221	0.059783
723	6.7772	-0.072522	-0.012537	0.1704	-0.1382	-0.24757	0.18851	-0.11905	-0.24665	0.21444	-0.046816	-0.15316	-0.008669	-0.046816	0.031938	-0.008669	0	0	0	-0.13213	0.029771	0.054716	-0.10267	0.024562	0.17014	-0.15025	-0.082221	0.059699
724	6.7866	-0.072721	-0.012608	0.17029	-0.13801	-0.24797	0.18858	-0.11888	-0.247	0.21453	-0.046816	-0.15316	-0.008669	-0.046816	0.031938	-0.008669	0	0	0	-0.13221	0.029771	0.054686	-0.10277	0.024514	0.17011	-0.15035	-0.082221	0.059616
725	6.796	-0.07292	-0.012678	0.17017	-0.13781	-0.24838	0.18866	-0.11872	-0.24734	0.21461	-0.046816	-0.15316	-0.008669	-0.046816	0.031938	-0.008669	0	0	0	-0.13229	0.02977	0.054657	-0.10286	0.024466	0.17008	-0.15044	-0.082221	0.059533
